<?xml version="1.0" standalone="no"?>
<!DOCTYPE svg PUBLIC "-//W3C//DTD SVG 1.1//EN" "http://www.w3.org/Graphics/SVG/1.1/DTD/svg11.dtd">
<svg class="icon" xmlns="http://www.w3.org/2000/svg" xmlns:xlink="http://www.w3.org/1999/xlink" width="21" height="21"
    viewBox="0 0 21 21" fill="none">
    <path full="#ffffff"
        d="M9.88 0L5.17565e-16 0L5.17565e-16 9.88L3.71 6.16L13.42 15.95L15.91 13.46L6.16 3.71L9.88 0Z M3.71 35.7979L0 32.0779L0 41.9579L9.88 41.9579L6.16 38.2379L15.91 28.4979L13.46 26.0479L3.71 35.7979Z M35.7979 3.71L26.0479 13.46L28.5379 15.95L38.2879 6.21L41.9979 9.92L41.9979 0L32.0779 0L35.7979 3.71Z M26.0042 28.5379L35.7542 38.2879L32.0342 41.9979L41.9542 41.9979L41.9542 32.0779L38.2442 35.7979L28.4942 26.0479L26.0042 28.5379Z " />
</svg>